<?xml version="1.0" standalone="no"?>
<!DOCTYPE svg PUBLIC "-//W3C//DTD SVG 20010904//EN"
 "http://www.w3.org/TR/2001/REC-SVG-20010904/DTD/svg10.dtd">
<svg version="1.0" xmlns="http://www.w3.org/2000/svg"
 width="263.000000pt" height="276.000000pt" viewBox="0 0 263.000000 276.000000"
 preserveAspectRatio="xMidYMid meet">

<g transform="translate(0.000000,276.000000) scale(0.100000,-0.100000)"
fill="#000000" stroke="none">
<path d="M0 1380 l0 -1380 1315 0 1315 0 0 1380 0 1380 -1315 0 -1315 0 0
-1380z m1320 1195 c33 -14 70 -25 84 -25 45 0 75 -19 96 -61 16 -30 19 -44 11
-52 -6 -6 -11 -21 -11 -34 0 -24 -15 -29 -40 -13 -12 7 -16 4 -20 -18 -5 -23
-10 -27 -38 -26 -22 1 -32 -3 -32 -12 0 -20 -25 -28 -49 -14 -12 6 -21 7 -21
3 0 -4 -4 -14 -9 -21 -12 -20 -61 5 -61 31 0 33 -46 84 -81 91 -40 8 -59 23
-59 46 0 19 -50 37 -70 25 -6 -4 -10 4 -10 18 0 41 25 52 112 49 43 -1 78 1
78 6 0 8 36 30 53 31 4 1 34 -10 67 -24z m813 -183 c26 -28 27 -53 1 -31 -14
12 -38 3 -29 -11 3 -5 1 -11 -5 -15 -6 -4 -10 11 -10 39 0 25 4 46 8 46 5 0
20 -13 35 -28z m-1463 -19 c0 -25 0 -26 20 -8 32 29 23 2 -10 -30 l-30 -29 0
47 c0 26 5 47 10 47 6 0 10 -12 10 -27z m1394 -5 c7 -18 11 -36 9 -40 -9 -17
-21 -7 -26 21 -5 22 -11 29 -27 28 -21 -1 -22 -14 -4 -61 3 -9 2 -16 -4 -16
-6 0 -15 14 -21 31 -7 22 -15 29 -26 25 -8 -3 -15 -1 -15 3 0 8 69 38 92 40 5
1 14 -14 22 -31z m-524 -40 c0 -25 -16 -22 -24 5 -11 41 -7 54 9 33 8 -11 15
-28 15 -38z m-792 35 c-3 -5 -10 -23 -17 -40 -7 -18 -17 -33 -23 -33 -6 0 -7
7 -4 16 3 9 9 27 12 40 3 13 13 24 21 24 8 0 13 -3 11 -7z m59 -30 c3 -7 0
-19 -6 -27 -6 -7 -9 -21 -5 -30 3 -9 2 -16 -4 -16 -5 0 -13 10 -17 23 -6 18
-8 19 -12 5 -2 -9 -10 -15 -18 -12 -11 5 -11 10 1 32 8 15 14 32 14 39 0 15
40 4 47 -14z m684 -13 c4 -19 5 -37 2 -40 -8 -8 -43 41 -43 62 0 34 33 17 41
-22z m459 4 c15 -44 9 -50 -26 -28 -27 18 -27 18 -15 -3 6 -12 7 -24 2 -27 -4
-3 -15 12 -24 34 -17 43 -10 49 29 24 24 -17 24 -17 15 10 -6 14 -7 26 -2 26
5 0 15 -16 21 -36z m-1038 -47 c-4 -47 22 -52 32 -7 3 17 10 30 15 30 12 0 -8
-62 -23 -72 -5 -4 -19 -2 -29 4 -15 8 -18 17 -14 42 4 26 2 32 -14 33 -14 1
-21 -6 -26 -28 -3 -16 -11 -29 -19 -29 -10 0 -11 7 -2 32 9 24 8 33 0 36 -7 2
-12 7 -12 12 0 4 21 2 48 -4 46 -12 47 -13 44 -49z m941 46 c-19 -7 -16 -23 5
-24 10 0 12 -3 5 -6 -7 -2 -13 -11 -13 -20 0 -10 6 -12 23 -8 15 5 19 4 12 -3
-5 -5 -19 -12 -30 -16 -17 -5 -22 1 -32 31 -12 40 -5 53 27 52 10 0 11 -2 3
-6z m-416 -15 c4 -7 6 -23 5 -35 -2 -12 2 -32 8 -44 12 -22 5 -89 -9 -89 -4 0
-16 17 -25 39 -13 28 -15 44 -8 57 5 11 7 34 5 52 -5 32 8 44 24 20z m-48 -55
c-2 -32 3 -68 9 -80 10 -18 10 -28 1 -45 l-12 -22 -18 23 c-22 27 -25 100 -8
150 17 49 30 37 28 -26z m415 27 c8 -44 8 -44 -1 -47 -5 -2 -14 15 -20 37 -8
31 -7 40 2 40 7 0 15 -14 19 -30z m-784 -1 c0 -4 -8 -6 -17 -2 -16 6 -16 4 1
-15 10 -12 16 -28 13 -37 -7 -17 -43 -20 -53 -4 -4 8 0 9 15 4 25 -8 27 2 5
27 -13 14 -14 21 -5 32 13 15 41 11 41 -5z m307 -17 c6 -22 6 -48 1 -62 -5
-14 -5 -27 0 -32 10 -10 -7 -58 -20 -58 -12 0 -21 48 -13 78 5 22 4 25 -6 15
-7 -7 -21 -13 -31 -13 -10 0 -18 -7 -18 -15 0 -8 -4 -15 -10 -15 -6 0 -6 10 1
27 5 14 7 38 4 53 -4 18 -1 31 10 40 10 8 15 9 15 1 0 -6 9 -11 20 -11 11 0
20 7 20 15 0 29 18 14 27 -23z m415 27 c-32 -12 -26 -51 8 -59 21 -5 22 -7 8
-13 -26 -10 -47 2 -54 29 -8 30 11 54 40 53 20 0 20 -1 -2 -10z m-57 -9 c3 -5
-2 -10 -12 -10 -15 0 -14 -3 6 -19 16 -12 22 -24 18 -35 -7 -17 -47 -23 -47
-6 0 5 7 7 15 4 22 -9 18 14 -5 26 -22 12 -27 36 -7 43 19 8 25 8 32 -3z
m-153 -37 c3 -16 8 -37 12 -48 7 -17 5 -17 -13 4 -21 23 -29 71 -12 71 5 0 11
-12 13 -27z m-37 -13 c17 -33 20 -70 6 -70 -14 0 -18 9 -26 58 -8 49 -2 54 20
12z m-768 -70 c24 -10 62 -32 85 -48 24 -16 65 -37 91 -47 26 -10 46 -23 44
-29 -5 -14 -87 -21 -87 -7 0 6 7 11 15 11 8 0 15 5 15 10 0 13 -22 13 -56 0
-19 -8 -30 -8 -38 0 -8 8 -4 12 12 16 41 11 23 24 -33 24 -41 0 -55 4 -55 14
0 8 6 17 13 20 6 3 -7 4 -30 2 -42 -4 -55 5 -31 20 8 5 -4 13 -32 20 l-45 12
45 1 c25 0 64 -8 87 -19z m1326 5 c-1 -5 -14 -11 -28 -13 -19 -3 -25 -8 -21
-19 5 -12 -1 -14 -33 -11 -35 3 -40 1 -38 -17 2 -17 -3 -20 -39 -18 -33 1 -41
-2 -40 -15 1 -11 -8 -18 -23 -20 -13 -2 -26 -12 -29 -24 -4 -17 -11 -20 -48
-15 -24 2 -41 1 -38 -4 3 -5 -6 -9 -21 -9 -14 0 -34 -5 -44 -12 -15 -9 -23 -7
-44 8 -38 28 -33 33 23 28 55 -5 70 1 234 90 48 27 102 52 120 57 40 9 72 7
69 -6z m-1463 -14 c0 -11 -57 -55 -82 -64 -10 -4 -28 -3 -39 2 -21 7 -21 8 7
28 47 33 114 53 114 34z m654 -48 c-9 -7 -21 -10 -26 -7 -5 4 -20 -4 -34 -17
-13 -12 -27 -19 -30 -16 -4 4 6 17 22 29 16 13 40 33 54 45 l25 22 3 -22 c2
-12 -4 -26 -14 -34z m916 22 l42 -35 -34 0 c-41 0 -78 24 -78 51 0 28 23 23
70 -16z m-670 -36 c0 -29 -4 -49 -11 -49 -7 0 -9 -12 -5 -35 6 -29 4 -35 -10
-35 -12 0 -15 -6 -10 -22 3 -13 6 -26 6 -30 0 -5 5 -8 11 -8 6 0 8 8 4 20 -3
11 1 30 11 44 9 14 13 33 10 42 -5 12 -1 14 16 8 19 -6 21 -4 11 7 -13 17 -12
110 2 107 6 -2 10 -16 10 -32 0 -16 6 -31 13 -33 6 -3 12 3 12 13 0 23 13 9
15 -16 1 -16 -3 -18 -23 -13 -21 5 -24 3 -18 -12 4 -11 0 -25 -10 -36 -11 -12
-14 -27 -10 -44 8 -33 30 -33 23 1 -4 21 -1 25 17 22 18 -3 21 -9 18 -45 -3
-47 14 -59 24 -18 6 25 28 33 39 15 3 -5 1 -10 -4 -10 -6 0 -11 -4 -11 -10 0
-5 6 -10 14 -10 20 0 31 -19 17 -33 -7 -7 -16 -6 -30 7 -13 12 -21 14 -26 6
-9 -14 -44 -3 -72 23 l-23 20 0 -22 c0 -18 -4 -22 -20 -18 -15 4 -20 0 -20
-13 0 -18 -23 -34 -34 -23 -3 4 -6 27 -6 51 0 50 -11 52 -12 3 -1 -23 -6 -31
-19 -31 -15 0 -17 6 -12 35 3 22 2 35 -5 35 -6 0 -12 -10 -14 -22 -2 -17 -9
-22 -25 -20 -23 3 -32 -12 -13 -21 6 -3 5 -4 -2 -3 -7 2 -27 -3 -45 -11 -41
-16 -44 -16 -37 2 5 12 -2 15 -30 15 -27 0 -34 3 -30 15 4 8 2 15 -4 15 -5 0
-13 -7 -16 -16 -4 -11 -13 -14 -30 -10 -15 4 -26 1 -29 -7 -3 -11 -27 -16 -86
-18 -12 -1 -28 5 -35 11 -8 10 -8 11 2 5 8 -4 19 0 27 11 10 15 16 16 28 6 10
-8 17 -9 21 -3 4 6 13 8 20 5 7 -3 16 1 19 9 3 9 19 18 35 22 17 3 33 13 36
22 6 14 8 14 24 -1 23 -20 32 -20 32 -2 0 8 -7 17 -16 20 -13 5 -14 9 -4 21
11 14 15 14 31 -1 17 -15 20 -15 45 5 25 20 51 20 38 0 -3 -6 2 -19 11 -29 15
-17 19 -17 32 -4 9 9 23 12 37 8 17 -5 19 -4 8 7 -7 7 -24 14 -39 15 -15 0
-28 5 -30 11 -2 6 6 8 19 6 15 -3 30 3 41 15 15 17 16 23 5 46 -10 23 -9 29 2
36 22 13 33 -3 33 -49 0 -23 3 -41 7 -41 14 0 21 32 14 66 -4 21 -2 40 6 49
20 24 30 8 30 -46z m-850 33 c0 -11 -16 -26 -45 -40 -55 -26 -58 -14 -8 27 43
36 53 38 53 13z m730 -28 c14 -36 12 -64 -4 -64 -17 0 -26 22 -26 61 0 36 17
38 30 3z m708 10 c34 -23 28 -44 -13 -44 -24 0 -37 6 -45 20 -21 39 16 54 58
24z m-770 -16 c18 -18 15 -49 -3 -42 -10 4 -15 0 -15 -12 -1 -18 -2 -18 -16 1
-14 19 -16 19 -25 2 -8 -14 -14 -15 -24 -7 -9 8 -15 8 -20 0 -10 -16 -25 -12
-25 9 0 27 20 40 59 37 20 -1 35 3 38 11 6 16 15 17 31 1z m-662 -13 c-19 -15
-46 -20 -46 -10 0 6 40 24 55 24 6 0 1 -6 -9 -14z m48 -22 c-31 -24 -44 -29
-44 -14 0 15 51 51 63 44 6 -4 -2 -16 -19 -30z m1290 5 c21 -29 20 -35 -4 -41
-23 -6 -73 29 -64 44 3 6 12 8 20 5 8 -3 14 -1 14 4 0 17 18 11 34 -12z m268
1 c20 -11 84 -136 74 -146 -2 -3 -14 -2 -25 2 -14 4 -32 30 -51 72 -39 87 -39
94 2 72z m-1812 -4 c0 -2 -9 -19 -20 -37 -26 -42 -26 -61 0 -28 l20 25 0 -23
c0 -36 -16 -59 -51 -71 -54 -19 -58 -16 -42 32 18 51 59 107 79 107 7 0 14 -2
14 -5z m80 -2 c-1 -5 -9 -32 -19 -61 -19 -56 -36 -80 -48 -69 -8 9 14 106 28
124 12 14 39 18 39 6z m240 -8 c0 -18 -31 -35 -66 -35 l-28 0 34 25 c38 28 60
32 60 10z m1464 -85 c4 -29 5 -54 3 -56 -7 -8 -75 17 -90 34 -15 17 -27 102
-14 102 4 0 11 0 17 0 5 0 23 -21 40 -47 16 -27 30 -41 30 -33 0 8 -9 30 -20
48 -27 44 -25 63 4 31 15 -17 26 -46 30 -79z m-1117 65 c-29 -26 -47 -32 -47
-16 0 13 41 41 60 41 10 -1 6 -9 -13 -25z m-487 6 c0 -5 -7 -25 -15 -44 -17
-42 -18 -47 -6 -47 5 0 12 11 15 25 8 33 26 32 26 0 0 -28 -46 -78 -64 -72
-18 6 -14 126 4 137 19 12 40 13 40 1z m540 -16 c0 -8 -9 -19 -20 -25 -16 -9
-20 -8 -20 5 0 19 22 45 33 38 4 -2 7 -11 7 -18z m747 -10 c10 -23 9 -25 -16
-25 -39 0 -55 19 -35 41 19 22 35 16 51 -16z m-889 13 c-5 -15 -58 -24 -58 -9
0 11 17 19 43 20 11 1 17 -4 15 -11z m-248 -13 c-7 -8 -17 -15 -22 -15 -6 0
-5 7 2 15 7 8 17 15 22 15 6 0 5 -7 -2 -15z m-222 -23 c1 -18 -5 -36 -18 -47
-20 -18 -20 -17 -20 9 0 29 16 66 28 66 4 0 9 -13 10 -28z m280 16 c-3 -7 -15
-15 -28 -16 -21 -3 -22 -2 -11 12 16 19 44 21 39 4z m1255 -16 c10 -9 17 -29
17 -49 0 -31 -2 -34 -22 -27 -13 3 -28 11 -34 16 -16 12 -23 53 -12 72 9 17
20 14 51 -12z m-1213 12 c0 -3 -5 -14 -10 -25 -16 -28 -32 -23 -18 6 10 22 28
35 28 19z m-176 -41 l-15 -38 20 23 c24 27 41 28 41 3 0 -22 -35 -51 -62 -51
-13 0 -18 8 -18 28 0 46 11 72 31 72 17 0 17 -2 3 -37z m436 6 c0 -11 -40 -18
-46 -8 -3 6 -3 17 0 25 5 12 9 12 26 2 11 -7 20 -16 20 -19z m674 25 c24 -9
19 -24 -8 -24 -26 0 -40 12 -29 24 8 8 17 8 37 0z m-894 -19 c-7 -8 -21 -15
-31 -15 -12 0 -16 5 -13 15 4 8 17 15 31 15 22 0 24 -2 13 -15z m58 3 c8 -8
15 -8 27 2 11 9 15 9 15 1 0 -8 5 -9 18 -2 16 9 19 6 20 -19 1 -32 -9 -38 -30
-17 -7 7 -30 12 -50 12 -35 -2 -49 11 -31 28 9 10 17 9 31 -5z m750 -4 c42
-29 19 -46 -32 -23 -14 7 -22 17 -19 25 7 18 23 18 51 -2z m271 -37 c17 -45
10 -55 -23 -33 -49 32 -57 81 -13 74 14 -2 26 -16 36 -41z m-1199 14 c-5 -11
-10 -31 -10 -45 0 -14 -4 -26 -10 -26 -5 0 -10 20 -10 45 0 39 3 45 20 45 17
0 19 -3 10 -19z m40 -14 c0 -14 -20 -37 -32 -37 -4 0 -2 11 4 25 12 27 28 34
28 12z m50 4 c0 -32 -15 -71 -27 -71 -11 0 -13 8 -8 33 4 17 9 35 12 40 6 10
23 9 23 -2z m1005 -21 c21 -21 24 -30 13 -30 -18 0 -68 37 -68 51 0 18 27 8
55 -21z m-965 -9 c0 -16 -27 -37 -36 -28 -4 4 25 47 32 47 2 0 4 -9 4 -19z
m40 -11 c0 -20 -5 -30 -15 -30 -15 0 -21 40 -8 53 14 15 23 6 23 -23z m774 -2
c5 -9 7 -20 3 -24 -8 -8 -57 23 -57 37 0 16 42 6 54 -13z m67 12 c28 -16 23
-32 -8 -28 -17 2 -29 10 -31 21 -4 19 10 22 39 7z m-1371 -24 c0 -41 -12 -116
-19 -112 -10 6 0 136 10 136 5 0 9 -11 9 -24z m102 -32 c-2 -36 0 -45 7 -34 6
8 11 25 11 38 0 13 6 22 15 22 8 0 15 -9 15 -19 0 -30 -19 -73 -29 -67 -5 3
-11 -1 -15 -9 -17 -46 -44 35 -31 95 11 49 30 30 27 -26z m1791 17 c20 -35 23
-105 5 -99 -20 6 -48 69 -48 105 0 39 18 36 43 -6z m-1947 15 c23 -24 18 -92
-8 -110 -48 -34 -57 -17 -37 74 11 52 21 60 45 36z m104 -22 c0 -39 -15 -74
-31 -74 -11 0 -4 84 8 103 11 18 23 4 23 -29z m1756 23 c4 -7 22 -113 19 -115
-2 -2 -12 1 -23 7 -17 9 -52 86 -52 114 0 7 51 1 56 -6z m-1602 -24 c-7 -28
-7 -28 15 -9 11 11 24 17 27 13 13 -13 -48 -97 -71 -97 -15 0 -4 83 15 104 18
23 21 20 14 -11z m106 -10 c0 -13 3 -13 15 -3 26 22 18 -15 -11 -49 -24 -29
-64 -43 -64 -22 0 14 22 75 33 88 11 16 27 7 27 -14z m1405 -25 c8 -28 13 -53
10 -56 -2 -3 -16 3 -30 12 -18 12 -25 25 -25 50 0 33 6 46 21 46 5 0 15 -23
24 -52z m-218 26 c4 -11 8 -12 13 -4 5 8 12 0 19 -21 13 -38 13 -39 -15 -29
-22 9 -51 70 -33 70 5 0 12 -7 16 -16z m88 -4 c3 -11 11 -20 16 -20 6 0 7 10
4 23 -6 17 -4 19 5 11 6 -6 14 -30 17 -53 4 -32 2 -41 -9 -41 -19 0 -32 15
-51 63 -13 31 -14 37 -2 37 7 0 17 -9 20 -20z m-1205 3 c0 -5 -5 -15 -10 -23
-8 -12 -10 -11 -10 8 0 12 5 22 10 22 6 0 10 -3 10 -7z m75 -23 c-7 -22 -26
-23 -33 0 -3 7 0 10 6 6 5 -3 13 1 16 10 9 24 19 9 11 -16z m990 19 c11 -17
-1 -21 -15 -4 -8 9 -8 15 -2 15 6 0 14 -5 17 -11z m-60 -9 c3 -5 -3 -10 -14
-10 -11 0 -23 5 -26 10 -3 6 3 10 14 10 11 0 23 -4 26 -10z m-394 -31 c113
-48 208 -71 284 -70 64 1 96 -20 76 -51 -16 -26 -41 -120 -41 -155 0 -15 -7
-34 -15 -43 -14 -16 -14 -22 1 -59 14 -36 15 -52 6 -108 -10 -60 -9 -69 10
-107 17 -33 21 -59 22 -136 0 -95 0 -95 -43 -165 -24 -38 -51 -75 -60 -82 -29
-23 -61 -26 -80 -9 -23 21 -52 21 -44 0 5 -15 3 -15 -26 0 -29 15 -31 15 -31
-1 0 -13 -3 -14 -12 -5 -7 7 -21 12 -31 12 -16 0 -18 -5 -13 -34 6 -32 5 -34
-45 -56 -41 -17 -56 -19 -73 -11 -12 6 -34 15 -49 21 -27 10 -28 13 -22 51 6
33 4 40 -6 37 -8 -3 -14 -11 -15 -19 -2 -34 -5 -39 -19 -39 -8 0 -15 5 -15 10
0 6 7 10 15 10 20 0 19 6 -6 31 -19 19 -22 19 -44 5 -23 -15 -25 -15 -35 5
-11 20 -12 20 -44 -5 l-33 -25 -42 30 c-22 17 -41 37 -41 46 0 8 -13 34 -30
58 -34 49 -36 77 -18 188 8 49 18 77 32 88 18 15 19 20 7 76 -12 53 -11 67 5
116 16 51 16 58 2 74 -9 10 -19 41 -23 68 -3 28 -14 76 -23 108 -19 72 -13 79
70 82 81 2 209 24 227 39 15 12 119 54 137 55 6 1 44 -13 85 -30z m790 -97 c4
-26 17 -117 29 -202 12 -85 26 -184 32 -219 9 -52 8 -65 -3 -72 -22 -14 -29
-11 -29 16 0 61 -23 175 -36 175 -7 0 -15 8 -18 18 -10 30 -12 316 -2 330 12
19 19 8 27 -46z m-1535 11 c-2 -134 5 -223 17 -220 18 3 9 -116 -14 -183 -23
-65 -43 -90 -61 -72 -9 9 -9 37 0 119 6 60 11 168 12 242 1 74 3 138 6 143 3
4 13 8 23 8 14 0 18 -8 17 -37z m-216 -31 c0 -66 17 -60 22 8 3 43 4 44 42 48
l39 4 -6 -201 c-5 -176 -4 -202 10 -209 12 -7 14 -18 8 -51 -7 -42 -34 -71
-67 -71 -20 0 -25 34 -7 46 8 5 9 37 5 103 -3 53 -2 143 2 201 9 108 7 125 -8
100 -9 -15 -17 -89 -26 -267 -6 -121 -6 -122 -41 -162 -19 -23 -38 -41 -43
-41 -26 0 -38 123 -20 210 6 25 14 88 19 140 5 52 13 110 17 129 5 23 4 32 -3
28 -6 -4 -14 -33 -18 -64 -4 -32 -14 -96 -22 -143 -8 -47 -16 -125 -17 -173
-1 -86 -2 -90 -30 -112 -16 -13 -38 -26 -49 -29 -18 -4 -19 -1 -13 36 4 22 15
104 26 182 52 381 44 343 67 325 13 -12 17 -12 25 1 6 9 27 16 49 17 l39 1 0
-56z m145 49 c8 -14 -6 -91 -16 -91 -5 0 -9 23 -9 50 0 46 11 63 25 41z m1711
-82 c6 -92 14 -102 15 -18 1 56 4 46 19 -71 15 -121 40 -276 57 -352 7 -35 -9
-36 -41 -4 -34 33 -52 108 -71 286 -17 167 -19 233 -8 244 15 14 25 -16 29
-85z m-195 -60 c5 -68 14 -140 19 -159 5 -19 11 -50 14 -69 5 -30 4 -32 -10
-20 -14 11 -16 10 -14 -16 3 -45 1 -49 -15 -35 -13 11 -15 8 -15 -14 0 -38
-19 -32 -37 11 -20 49 -10 166 18 201 22 28 26 50 6 33 -29 -23 -37 25 -12 73
8 15 15 53 15 84 0 101 20 42 31 -89z m-124 85 c1 -34 -2 -44 -12 -41 -7 3
-18 0 -24 -6 -6 -6 -11 -7 -11 -2 0 16 32 95 39 95 3 0 7 -21 8 -46z m-1287
-11 c0 -25 -2 -44 -4 -42 -8 10 -13 89 -5 89 5 0 9 -21 9 -47z m1325 -50 c-4
-74 -6 -77 -15 -28 -7 35 1 85 14 85 2 0 3 -26 1 -57z m-1267 -117 c-3 -131 4
-153 17 -53 3 26 9 47 13 47 9 0 8 -85 -2 -131 -10 -45 -48 -95 -65 -85 -7 5
-10 18 -7 30 3 11 8 91 11 176 4 85 9 159 12 163 17 27 24 -25 21 -147z m-163
50 c5 -47 3 -81 -4 -94 -6 -11 -11 -34 -11 -51 0 -17 -5 -31 -11 -31 -9 0 -10
25 -5 92 3 50 6 106 6 125 0 62 18 33 25 -41z m1306 42 c4 -95 2 -176 -5 -203
-7 -27 -9 -28 -18 -11 -15 27 -22 186 -9 219 14 37 31 34 32 -5z m87 -62 c2
-55 -2 -91 -14 -122 -16 -43 -12 -73 6 -44 14 22 23 -11 18 -62 -12 -113 23
-474 51 -526 10 -18 9 -22 -3 -22 -17 0 -59 68 -52 85 2 7 -2 32 -11 56 -10
29 -14 70 -11 121 2 43 -1 79 -6 81 -6 2 -5 27 1 65 7 47 7 62 -3 62 -18 0
-27 131 -19 271 7 103 10 120 24 117 13 -3 17 -19 19 -82z m-1288 58 c0 -8 -4
-12 -10 -9 -5 3 -10 10 -10 16 0 5 5 9 10 9 6 0 10 -7 10 -16z m1449 -84 c0
-29 -2 -31 -9 -15 -5 11 -9 34 -9 50 -1 23 2 26 9 15 5 -8 9 -31 9 -50z
m-1449 34 c0 -8 -5 -12 -10 -9 -6 4 -8 11 -5 16 9 14 15 11 15 -7z m1225 -184
c3 -5 1 -10 -4 -10 -6 0 -11 5 -11 10 0 6 2 10 4 10 3 0 8 -4 11 -10z m-2
-193 c4 -34 10 -89 12 -122 4 -53 3 -56 -6 -25 -19 65 -31 125 -36 180 -7 79
18 51 30 -33z m-1262 -40 c-2 -64 -12 -140 -27 -204 -26 -110 -30 -143 -15
-127 13 13 61 263 62 321 1 26 5 59 9 73 7 22 8 20 9 -15 1 -57 -15 -173 -41
-295 -16 -79 -28 -110 -46 -129 -43 -43 -46 -9 -12 161 17 84 33 178 36 208
15 154 29 158 25 7z m80 -44 c-14 -181 -21 -232 -32 -239 -13 -8 -11 56 7 201
22 182 25 198 31 192 2 -3 0 -72 -6 -154z m1378 -50 c8 -95 18 -173 23 -173 4
0 8 14 8 32 0 42 8 32 14 -17 3 -22 12 -74 21 -115 15 -71 14 -134 -4 -144
-13 -9 -54 55 -63 98 -10 53 -46 335 -45 361 0 11 -3 46 -7 78 -7 57 -7 59 16
55 22 -3 23 -7 37 -175z m-1579 150 c-4 -124 -22 -305 -38 -373 -11 -47 -26
-112 -32 -144 -8 -41 -15 -55 -21 -45 -15 24 -10 110 10 184 32 118 46 197 47
270 1 112 3 125 19 125 8 0 15 -8 15 -17z m1675 7 c4 -6 11 -56 16 -113 30
-320 40 -426 45 -462 l6 -40 -22 21 c-17 17 -24 43 -36 130 -7 60 -18 131 -24
158 -6 26 -13 108 -17 182 -5 119 -4 134 10 134 9 0 19 -5 22 -10z m-1788 -73
c-3 -40 -12 -111 -20 -157 -9 -47 -23 -134 -32 -195 -9 -60 -19 -121 -21 -134
-4 -18 -2 -22 10 -18 9 4 16 5 16 2 0 -9 -67 -73 -82 -78 -21 -7 -22 -3 -6 26
16 30 16 27 37 157 30 183 41 261 47 320 2 30 11 64 18 75 7 11 16 32 20 48
12 50 19 28 13 -46z m1894 9 c5 -6 9 2 9 23 0 19 4 30 10 26 6 -3 10 -18 10
-33 0 -15 5 -34 10 -42 7 -12 10 -8 10 15 0 37 13 23 29 -33 13 -46 7 -67 -15
-58 -11 4 -14 -5 -14 -37 0 -30 3 -38 10 -27 18 28 29 -4 36 -107 5 -75 4
-103 -5 -103 -6 0 -12 12 -13 28 -1 15 -2 41 -3 57 -4 90 -5 96 -16 89 -8 -4
-9 -29 -5 -75 6 -57 5 -69 -7 -69 -8 0 -18 -10 -22 -22 l-7 -23 -8 25 c-15 45
-12 110 5 110 10 0 15 10 15 30 0 31 -9 37 -27 19 -8 -8 -17 -8 -32 0 -25 14
-26 24 -6 41 17 14 19 73 7 130 -5 20 -4 50 2 70 l10 35 4 -30 c2 -16 8 -34
13 -39z m-2016 -32 c-5 -42 -12 -58 -33 -75 l-27 -21 -3 45 c-4 64 10 110 39
124 30 16 34 4 24 -73z m280 22 c-10 -69 -24 -94 -25 -40 0 57 11 105 22 98 6
-4 7 -28 3 -58z m1442 22 c-3 -8 -6 -5 -6 6 -1 11 2 17 5 13 3 -3 4 -12 1 -19z
m123 -20 c0 -49 -5 -47 -13 5 -3 20 -2 37 4 37 5 0 9 -19 9 -42z m-1799 -37
c-3 -69 -14 -111 -31 -111 -12 0 -14 33 -2 44 4 4 7 20 8 34 2 84 5 103 16
100 8 -3 11 -26 9 -67z m119 33 c0 -21 -4 -33 -10 -29 -17 10 -11 65 7 65 2 0
3 -16 3 -36z m1800 -15 c0 -5 -4 -9 -10 -9 -5 0 -10 7 -10 16 0 8 5 12 10 9 6
-3 10 -10 10 -16z m-220 -93 c0 -24 3 -53 6 -63 6 -14 4 -16 -6 -6 -17 16 -27
113 -11 113 6 0 11 -18 11 -44z m-1584 -40 c-4 -28 -13 -69 -20 -91 -17 -50
-36 -151 -36 -193 0 -30 -15 -51 -27 -38 -7 6 34 285 47 326 4 14 11 33 14 43
3 10 11 15 17 11 7 -4 9 -24 5 -58z m1463 -50 c6 -27 9 -51 6 -55 -11 -10 -35
31 -35 58 0 15 -4 40 -9 58 -5 17 -7 34 -3 37 7 8 25 -35 41 -98z m-1359 69
c0 -14 -4 -25 -10 -25 -11 0 -14 33 -3 43 11 11 13 8 13 -18z m1577 -7 c-3 -7
-5 -2 -5 12 0 14 2 19 5 13 2 -7 2 -19 0 -25z m-1864 -40 c-5 -55 -10 -67 -40
-98 l-35 -35 6 30 c4 17 10 54 13 83 5 44 10 55 32 67 14 8 27 14 28 15 0 0
-1 -28 -4 -62z m37 -53 c0 -16 -7 -50 -14 -75 -11 -35 -16 -41 -21 -27 -4 10
-3 29 4 43 6 14 11 46 11 72 0 34 3 43 10 32 5 -8 10 -28 10 -45z m232 13 c-7
-7 -12 -8 -12 -2 0 14 12 26 19 19 2 -3 -1 -11 -7 -17z m1505 -40 c-3 -7 -5
-2 -5 12 0 14 2 19 5 13 2 -7 2 -19 0 -25z m233 -1 c0 -18 -2 -19 -10 -7 -13
20 -13 43 0 35 6 -3 10 -16 10 -28z m-1754 -61 c-4 -31 -12 -59 -18 -62 -11
-7 -2 101 9 119 11 19 15 -5 9 -57z m550 17 c-10 -10 -19 5 -10 18 6 11 8 11
12 0 2 -7 1 -15 -2 -18z m74 11 c0 -8 -5 -12 -10 -9 -6 4 -8 11 -5 16 9 14 15
11 15 -7z m-905 -61 c-5 -50 -14 -75 -33 -100 -25 -30 -27 -31 -34 -13 -4 11
-3 32 2 46 6 14 10 35 10 46 0 20 44 88 57 88 3 0 2 -30 -2 -67z m2044 10 c-1
-39 -2 -43 -9 -23 -12 36 -12 70 0 70 6 0 10 -21 9 -47z m-1224 27 c3 -5 -1
-10 -9 -10 -9 0 -16 5 -16 10 0 6 4 10 9 10 6 0 13 -4 16 -10z m70 0 c3 -5 -1
-10 -9 -10 -9 0 -16 5 -16 10 0 6 4 10 9 10 6 0 13 -4 16 -10z m315 -10 c0 -5
-4 -10 -10 -10 -5 0 -10 5 -10 10 0 6 5 10 10 10 6 0 10 -4 10 -10z m120 0 c0
-5 -4 -10 -10 -10 -5 0 -10 5 -10 10 0 6 5 10 10 10 6 0 10 -4 10 -10z m-450
-20 c0 -5 -7 -10 -15 -10 -8 0 -15 5 -15 10 0 6 7 10 15 10 8 0 15 -4 15 -10z
m405 0 c-3 -5 -10 -10 -16 -10 -5 0 -9 5 -9 10 0 6 7 10 16 10 8 0 12 -4 9
-10z m-477 -11 c-2 -6 -8 -10 -13 -10 -5 0 -11 4 -13 10 -2 6 4 11 13 11 9 0
15 -5 13 -11z m127 0 c4 -6 5 -12 2 -15 -7 -7 -37 7 -37 17 0 13 27 11 35 -2z
m293 -1 c-6 -18 -28 -21 -28 -4 0 9 7 16 16 16 9 0 14 -5 12 -12z m122 2 c0
-5 -7 -10 -15 -10 -8 0 -15 5 -15 10 0 6 7 10 15 10 8 0 15 -4 15 -10z m-1300
-62 c0 -20 -5 -40 -11 -44 -21 -12 -28 11 -17 60 12 55 28 46 28 -16z m826 41
c3 -6 0 -18 -9 -26 -18 -18 -37 -9 -37 18 0 21 34 27 46 8z m422 -11 c-2 -13
-7 -23 -13 -23 -5 0 -11 10 -13 23 -2 15 2 22 13 22 11 0 15 -7 13 -22z m-379
3 c17 -11 7 -41 -14 -41 -9 0 -15 9 -15 25 0 27 6 30 29 16z m331 -17 c0 -8
-9 -14 -20 -14 -22 0 -26 10 -8 28 13 13 28 7 28 -14z m900 -50 c11 -67 13
-138 4 -147 -4 -3 -16 1 -29 9 -31 20 -41 104 -19 168 20 58 31 50 44 -30z
m-1340 50 c0 -9 -7 -14 -17 -12 -25 5 -28 28 -4 28 12 0 21 -6 21 -16z m543
10 c3 -3 3 -12 0 -20 -4 -11 -9 -12 -19 -3 -8 6 -11 15 -8 20 6 10 18 12 27 3z
m819 -19 c3 -13 1 -22 -3 -19 -9 5 -13 44 -5 44 2 0 6 -11 8 -25z m-672 -51
c50 -67 63 -104 36 -104 -15 0 -56 50 -56 69 0 5 -11 27 -25 47 -21 31 -25 54
-10 54 2 0 27 -30 55 -66z m-845 45 c4 -6 -14 -42 -39 -80 -37 -55 -51 -69
-71 -69 -32 0 -32 10 0 40 14 13 39 45 56 72 32 49 43 56 54 37z m1403 -84 l0
-40 -9 40 c-4 22 -8 51 -7 65 l0 25 8 -25 c4 -14 8 -43 8 -65z m-1183 65 c3
-5 -3 -10 -14 -10 -12 0 -21 5 -21 10 0 6 6 10 14 10 8 0 18 -4 21 -10z m412
-7 c-9 -9 -19 -14 -23 -11 -10 10 6 28 24 28 15 0 15 -1 -1 -17z m-566 -66
c-34 -82 -38 -86 -55 -62 -12 17 -11 24 15 61 32 47 59 77 65 71 2 -2 -9 -33
-25 -70z m227 61 c-7 -20 -48 -23 -48 -4 0 11 9 16 26 16 16 0 24 -5 22 -12z
m287 2 c3 -6 -1 -13 -10 -16 -19 -8 -30 0 -20 15 8 14 22 14 30 1z m-211 -43
c-3 -9 -10 -17 -15 -17 -11 0 -12 34 -2 44 11 11 24 -9 17 -27z m397 2 c10
-13 21 -37 25 -52 6 -25 4 -28 -12 -25 -10 2 -27 19 -36 38 -32 66 -16 93 23
39z m-1441 -48 c-18 -69 -67 -100 -57 -36 7 41 60 117 65 92 2 -8 -2 -34 -8
-56z m1140 43 c0 -8 -4 -14 -10 -14 -5 0 -10 9 -10 21 0 11 5 17 10 14 6 -3
10 -13 10 -21z m225 -31 c24 -53 27 -91 6 -79 -12 8 -38 65 -46 104 -11 52 13
38 40 -25z m-523 -23 c-6 -37 -12 -46 -31 -48 -13 -2 -21 0 -19 5 6 12 24 54
39 88 16 38 22 15 11 -45z m108 45 c0 -15 -38 -55 -52 -55 -5 0 4 16 19 35 32
40 33 40 33 20z m300 -18 c0 -5 -4 -5 -10 -2 -5 3 -10 14 -10 23 0 15 2 15 10
2 5 -8 10 -19 10 -23z m967 -36 c4 -26 2 -41 -5 -41 -6 0 -11 12 -10 28 0 15
-3 38 -7 52 -6 19 -5 22 4 14 7 -6 15 -30 18 -53z m-2027 20 c-11 -21 -47 -37
-58 -26 -8 8 38 44 56 45 9 0 10 -5 2 -19z m-147 3 c4 -4 -3 -20 -14 -36 -26
-36 -36 -29 -19 12 12 30 21 36 33 24z m1037 -33 c14 -28 12 -52 -7 -73 -46
-51 -117 24 -73 77 18 22 67 19 80 -4z m100 9 c0 -5 -10 -9 -22 -7 -15 1 -23
-3 -23 -13 0 -8 6 -16 13 -16 26 -3 26 -6 4 -15 -18 -7 -22 -14 -17 -30 5 -16
3 -20 -10 -17 -14 2 -18 14 -19 56 l-1 52 38 0 c20 0 37 -4 37 -10z m-270 -40
c0 -5 -5 -10 -11 -10 -5 0 -7 5 -4 10 3 6 8 10 11 10 2 0 4 -4 4 -10z m355 0
c3 -5 1 -10 -4 -10 -6 0 -11 5 -11 10 0 6 2 10 4 10 3 0 8 -4 11 -10z m-1000
-55 c0 -42 -3 -55 -15 -55 -12 0 -15 13 -15 55 0 42 3 55 15 55 12 0 15 -13
15 -55z m60 25 c4 -16 11 -30 16 -30 5 0 12 14 16 30 5 27 23 43 23 21 0 -13
-40 -101 -46 -101 -5 0 -27 49 -38 88 -5 16 -3 22 8 22 8 0 17 -13 21 -30z
m1412 15 c2 -6 -9 -11 -24 -10 -22 0 -29 -5 -31 -23 -4 -24 13 -52 30 -52 6 0
8 9 5 20 -4 15 0 20 15 20 14 0 19 -6 16 -22 -5 -35 -61 -38 -83 -5 -17 27 -8
70 17 80 19 8 51 3 55 -8z m54 -31 c-3 -40 -1 -45 15 -42 15 3 19 12 18 46 0
29 3 42 13 42 17 0 17 -70 0 -95 -18 -24 -62 -14 -71 17 -12 45 -7 78 12 78
14 0 17 -7 13 -46z m217 30 c12 -2 22 -9 22 -15 0 -6 -9 -8 -20 -4 -17 5 -20
2 -21 -27 -1 -18 -1 -39 0 -45 1 -7 -7 -13 -19 -13 -17 0 -19 4 -13 28 14 57
11 63 -36 67 l-43 4 27 -29 c24 -25 26 -32 15 -45 -17 -21 -60 -20 -60 2 0 13
3 14 12 5 16 -16 28 -15 28 3 0 8 -9 19 -20 25 -23 12 -26 30 -8 48 11 11 70
10 136 -4z m-1801 -44 c2 -28 0 -50 -4 -50 -4 0 -20 12 -35 27 -26 24 -28 25
-28 7 0 -11 5 -25 11 -31 7 -7 6 -12 -4 -16 -11 -4 -16 5 -21 33 -3 21 -9 45
-12 54 -10 25 19 19 46 -9 28 -30 34 -27 21 9 -9 22 -8 26 7 26 13 0 17 -10
19 -50z m263 39 c0 -6 -9 -8 -20 -4 -14 5 -20 2 -20 -9 0 -9 7 -16 15 -16 22
0 18 -17 -6 -23 -13 -3 -18 -10 -14 -17 4 -7 16 -10 26 -7 11 3 19 1 19 -4 0
-5 -17 -9 -37 -9 l-38 0 3 50 c4 50 4 50 38 50 19 0 34 -5 34 -11z m84 -5 c12
-12 13 -20 6 -35 -8 -13 -7 -25 0 -39 15 -29 -12 -27 -34 3 l-17 22 5 -22 c3
-18 0 -23 -16 -23 -14 0 -18 5 -14 16 3 9 6 33 6 55 0 35 3 39 24 39 14 0 32
-7 40 -16z m1080 -38 c31 -53 32 -56 6 -56 -11 0 -19 6 -17 13 1 6 -7 12 -18
12 -14 0 -19 -6 -17 -17 2 -11 -3 -18 -14 -18 -10 0 -14 5 -11 14 3 8 11 33
17 55 6 23 15 41 19 41 5 0 21 -20 35 -44z m429 38 c12 -4 13 -13 6 -45 -5
-22 -7 -44 -4 -50 4 -5 -3 -9 -15 -9 -17 0 -19 4 -13 28 4 15 8 39 8 55 0 15
1 27 2 27 1 0 8 -3 16 -6z m-1977 -13 c-4 -5 -1 -22 4 -36 12 -33 5 -61 -17
-69 -21 -8 -53 2 -53 17 0 7 -6 24 -14 39 -15 28 -12 38 11 38 7 0 13 -9 13
-21 0 -29 18 -59 35 -59 19 0 19 27 1 62 -8 15 -12 29 -8 32 9 10 34 7 28 -3z
m569 0 c3 -5 1 -12 -4 -15 -5 -4 -11 0 -14 6 -2 7 -8 9 -13 5 -4 -4 -3 -16 4
-25 23 -33 25 -45 8 -57 -20 -15 -56 -8 -56 11 0 12 4 12 20 2 29 -19 36 -1
10 27 -13 14 -20 31 -17 39 7 17 52 22 62 7z m853 -46 c3 -61 -6 -69 -36 -28
-23 31 -40 26 -22 -6 12 -23 11 -24 -42 -35 -22 -5 -28 -3 -28 10 0 9 -7 14
-17 12 -10 -2 -18 -10 -18 -17 0 -8 -6 -16 -14 -19 -9 -3 -11 2 -8 14 3 11 9
36 13 57 8 48 25 47 53 -3 34 -61 52 -52 32 17 -13 46 4 51 41 11 l31 -33 -7
38 c-5 27 -3 37 6 37 9 0 14 -18 16 -55z m633 7 c11 -34 12 -35 21 -13 4 12 6
27 2 32 -3 5 2 9 11 9 11 0 15 -5 12 -14 -3 -8 -9 -31 -13 -50 -8 -44 -30 -47
-39 -6 -9 41 -25 48 -25 11 0 -22 -5 -31 -16 -31 -11 0 -14 5 -9 18 4 9 9 34
12 54 7 46 27 41 44 -10z m-1436 19 c-3 -10 -6 -34 -7 -53 -1 -28 -5 -34 -19
-31 -14 4 -15 10 -7 40 5 19 7 41 4 49 -4 9 2 14 15 14 15 0 19 -5 14 -19z
m84 3 c17 -4 31 -11 31 -16 0 -5 -8 -7 -19 -3 -15 5 -20 -1 -25 -30 -4 -19 -4
-40 -1 -45 3 -6 -3 -10 -15 -10 -16 0 -19 5 -16 23 13 57 11 72 -6 69 -10 -2
-18 2 -18 8 0 11 23 13 69 4z m71 -35 c0 -25 20 -24 27 1 3 11 9 20 14 20 14
0 10 -13 -11 -40 -11 -14 -20 -35 -20 -47 0 -16 -5 -20 -20 -16 -16 4 -18 8
-9 19 8 10 8 22 0 45 -15 42 -14 49 4 43 8 -4 15 -15 15 -25z m435 11 c3 -5
-3 -10 -14 -10 -29 0 -26 -14 5 -28 18 -9 24 -19 22 -35 -3 -25 -43 -36 -61
-18 -9 9 -5 11 12 9 32 -4 39 20 7 28 -29 7 -41 31 -25 50 13 16 45 18 54 4z
m-164 -106 c-21 -46 -21 -46 -1 -41 13 3 23 -1 29 -11 10 -20 24 -192 15 -192
-10 0 -43 42 -63 80 -11 21 -18 50 -16 73 2 20 -1 37 -6 37 -5 0 -9 7 -9 15 0
8 5 15 10 15 6 0 10 9 10 20 0 11 5 20 10 20 6 0 16 12 22 26 7 15 14 21 16
16 2 -6 -6 -32 -17 -58z m-666 23 c24 -18 11 -37 -25 -37 -28 0 -57 29 -43 44
11 11 48 7 68 -7z m1279 -6 c28 -31 16 -43 -23 -23 -19 9 -37 23 -39 30 -6 20
43 14 62 -7z m-94 -22 c0 -17 -5 -40 -11 -52 -11 -20 -12 -19 -24 14 -9 28 -9
37 3 52 22 25 32 21 32 -14z m-1038 6 c10 -11 -14 -84 -34 -102 -16 -15 -21
-15 -28 -3 -11 17 -13 71 -4 94 6 15 54 23 66 11z m973 -35 c31 -60 10 -93
-32 -47 -33 37 -36 47 -17 62 27 20 32 19 49 -15z m-835 -6 c0 -22 -51 -114
-63 -114 -15 0 -2 110 14 121 23 14 49 10 49 -7z m736 -40 c14 -31 23 -58 20
-61 -4 -5 -116 56 -116 64 0 2 8 15 18 28 29 40 50 31 78 -31z m-476 -25 c0
-47 2 -50 17 -38 15 13 15 10 9 -26 -9 -46 -33 -88 -46 -80 -5 3 -19 37 -32
76 l-23 71 30 24 c17 13 33 24 38 24 4 0 7 -23 7 -51z m-150 -3 c0 -59 -15
-97 -34 -90 -26 10 -28 43 -6 89 12 25 26 45 31 45 5 0 9 -20 9 -44z m490 17
c23 -30 25 -93 2 -101 -7 -2 -33 16 -58 41 -39 40 -44 48 -34 66 16 31 63 28
90 -6z"/>
<path d="M1275 2541 c-3 -6 -2 -11 3 -11 5 0 12 -9 15 -20 7 -26 38 -26 60 1
22 25 22 25 -29 34 -26 4 -44 2 -49 -4z"/>
<path d="M1203 2512 c-34 -5 -28 -19 17 -42 38 -20 40 -20 40 -2 0 26 -30 49
-57 44z"/>
<path d="M1110 2471 c0 -15 34 -31 64 -31 14 0 41 -14 61 -31 19 -17 35 -27
35 -21 0 19 -60 61 -103 73 -23 6 -45 13 -49 16 -5 2 -8 0 -8 -6z"/>
<path d="M2100 2390 c0 -5 5 -10 11 -10 5 0 7 5 4 10 -3 6 -8 10 -11 10 -2 0
-4 -4 -4 -10z"/>
<path d="M775 2330 c-3 -5 -1 -10 4 -10 6 0 11 5 11 10 0 6 -2 10 -4 10 -3 0
-8 -4 -11 -10z"/>
<path d="M1337 1704 c-4 -4 -7 -16 -7 -28 0 -11 -11 -36 -25 -56 -21 -31 -24
-41 -15 -64 8 -22 7 -28 -7 -33 -19 -8 -87 63 -79 83 7 18 -16 33 -38 25 -18
-7 -17 -8 5 -27 50 -40 84 -97 81 -133 l-4 -35 -35 63 c-19 34 -40 60 -46 58
-21 -7 -76 -92 -76 -117 0 -23 1 -22 14 8 8 17 17 32 20 32 3 0 5 -30 5 -66 0
-58 -2 -64 -15 -50 -8 8 -15 20 -15 26 0 13 -48 32 -61 24 -5 -3 -9 -12 -9
-21 0 -9 -6 -13 -15 -9 -18 6 -19 1 -4 -25 8 -16 17 -18 45 -13 22 4 34 2 34
-5 0 -6 -5 -11 -11 -11 -15 0 -7 -43 9 -46 7 -1 8 0 2 3 -16 8 -12 27 10 40
20 13 37 2 25 -17 -11 -18 5 -49 22 -43 13 5 14 3 4 -15 -6 -11 -16 -24 -21
-27 -14 -9 -51 5 -44 16 3 5 11 6 17 3 8 -5 8 -3 0 7 -10 9 -16 10 -24 2 -14
-14 8 -48 31 -48 21 0 19 -45 -3 -59 -15 -9 -21 -7 -34 9 -11 15 -17 16 -20 7
-14 -37 -73 -62 -73 -31 0 5 -4 9 -10 9 -19 0 -10 -31 13 -40 16 -6 17 -9 5
-9 -14 -1 -48 23 -48 34 0 2 7 11 16 19 8 9 11 16 5 16 -15 0 -34 -39 -27 -55
3 -8 1 -17 -4 -20 -6 -4 -3 -16 6 -30 9 -13 15 -27 14 -30 -1 -4 2 -10 6 -13
4 -4 5 3 2 15 -4 14 1 28 14 40 20 17 20 17 15 -2 -5 -15 3 -27 30 -47 44 -34
67 -35 87 -6 12 17 13 25 3 37 -10 12 -9 13 1 7 8 -5 18 -1 26 10 12 16 15 15
50 -11 34 -26 36 -29 20 -46 -15 -17 -18 -17 -40 -2 -20 13 -22 18 -13 37 l12
21 -21 -20 c-19 -20 -19 -20 -1 -41 11 -11 19 -24 19 -30 0 -5 -5 -2 -11 6 -9
13 -10 13 -6 0 2 -10 17 -15 42 -16 29 -1 43 -7 57 -28 11 -14 25 -26 31 -26
7 0 4 5 -5 11 -10 5 -18 14 -18 19 0 13 31 12 50 0 12 -8 13 -11 1 -19 -17
-11 1 -22 18 -11 8 4 10 13 7 19 -4 6 -2 11 3 11 6 0 11 -6 11 -14 0 -36 63
-24 75 15 5 16 12 19 30 15 14 -3 27 -1 31 6 4 7 3 8 -4 4 -7 -4 -12 -3 -12 2
0 16 33 24 42 10 5 -9 8 -6 8 9 0 12 9 27 21 34 17 9 23 7 35 -9 16 -23 44
-20 70 9 23 26 50 24 59 -3 8 -23 8 -23 12 2 3 14 12 33 20 42 8 9 13 23 10
30 -4 9 -6 7 -6 -4 -1 -20 -42 -34 -68 -23 -19 8 -16 9 30 19 22 5 27 12 27
36 0 24 -6 33 -26 40 -32 13 -44 13 -44 0 0 -5 9 -10 20 -10 24 0 26 -13 4
-31 -20 -16 -49 -1 -50 27 -3 56 -5 64 -14 64 -5 0 -7 -13 -4 -28 6 -27 4 -29
-24 -24 -24 3 -31 11 -41 42 -6 21 -17 43 -25 49 -11 9 -12 2 -8 -41 5 -49 4
-52 -12 -39 -10 8 -16 22 -13 31 2 8 -2 21 -9 28 -11 10 -13 7 -8 -20 3 -18
19 -46 36 -61 28 -27 29 -29 11 -42 -26 -20 -43 -18 -43 5 0 11 -4 20 -10 20
-5 0 -10 8 -10 19 0 25 -23 43 -44 35 -15 -6 -17 -1 -14 31 4 46 28 66 58 47
11 -7 20 -8 20 -3 0 5 12 9 26 9 19 0 33 -11 52 -39 33 -46 40 -48 34 -9 -2
16 -8 28 -12 25 -4 -2 -17 6 -29 19 l-23 24 27 18 c22 14 26 23 23 50 -4 30
-2 32 12 19 34 -30 70 -7 70 44 0 24 -18 28 -26 6 -4 -10 -13 -13 -25 -10 -26
8 -59 -3 -59 -20 0 -20 -15 -27 -45 -19 -18 4 -23 9 -15 14 20 13 -7 22 -29
10 -24 -12 -31 -13 -31 -2 0 6 85 66 138 96 7 4 23 1 35 -7 26 -17 61 -7 76
22 27 49 -8 91 -75 91 -29 0 -43 -4 -39 -10 4 -6 1 -17 -5 -25 -7 -8 -10 -21
-7 -29 4 -10 -11 -27 -44 -50 -27 -20 -51 -36 -53 -36 -2 0 -6 12 -9 26 -6 35
46 97 74 89 21 -7 25 5 7 23 -8 8 -8 15 2 27 7 8 10 19 6 23 -4 4 -12 -1 -17
-11 -7 -12 -17 -15 -33 -11 -20 5 -23 2 -19 -18 3 -16 -5 -31 -26 -52 -33 -31
-49 -30 -32 2 11 21 5 59 -14 82 -7 8 -19 30 -27 48 -7 19 -16 30 -21 26z m10
-46 c-3 -8 -6 -5 -6 6 -1 11 2 17 5 13 3 -3 4 -12 1 -19z m1 -65 c-14 -23 -24
-31 -26 -22 -3 8 -10 18 -16 22 -7 6 -4 7 7 3 10 -3 17 0 17 8 0 13 13 23 32
25 4 1 -2 -15 -14 -36z m20 -33 c-13 -30 -28 -40 -28 -20 0 6 7 25 17 43 20
39 30 19 11 -23z m266 21 c7 -11 -23 -37 -51 -44 -30 -7 -29 -1 5 28 29 27 38
30 46 16z m16 -67 c0 -9 -11 -14 -30 -14 -36 0 -39 13 -7 27 25 12 37 8 37
-13z m-439 -46 c7 -17 12 -51 10 -74 l-2 -43 33 5 c22 4 40 0 53 -11 19 -15
15 -15 -55 -9 -41 3 -75 7 -75 8 -3 26 9 156 15 156 4 0 13 -14 21 -32z m43
-69 c-3 -5 -10 -7 -15 -3 -5 3 -7 10 -3 15 3 5 10 7 15 3 5 -3 7 -10 3 -15z
m-194 -14 c0 -14 -4 -25 -10 -25 -5 0 -10 11 -10 25 0 14 5 25 10 25 6 0 10
-11 10 -25z m476 -28 c29 1 25 -24 -7 -48 -30 -23 -39 -24 -39 -3 0 8 4 12 10
9 5 -3 20 1 32 9 12 9 18 16 12 16 -5 0 -14 -4 -19 -8 -6 -5 -44 -6 -85 -3
-44 4 -70 9 -62 14 6 5 17 5 22 2 6 -3 18 1 27 10 12 13 25 15 52 9 20 -4 46
-7 57 -7z m-288 -50 c2 -12 -3 -17 -17 -17 -12 0 -21 6 -21 13 0 31 32 34 38
4z m-48 -1 c0 -20 -16 -29 -40 -21 -32 10 -25 35 10 35 19 0 30 -5 30 -14z
m110 0 c0 -20 -19 -31 -32 -18 -6 6 -7 15 -4 21 10 16 36 13 36 -3z m78 -3
c-4 -20 -36 -28 -57 -14 -21 13 -4 31 30 31 24 0 30 -4 27 -17z m70 -5 c3 -14
-3 -18 -27 -18 -25 0 -31 4 -31 21 0 16 5 20 27 17 17 -2 29 -10 31 -20z
m-103 -42 c15 -13 24 -29 21 -35 -10 -16 23 -81 39 -75 7 3 15 -6 19 -22 5
-19 10 -24 15 -15 6 9 10 6 14 -10 13 -49 -28 -55 -42 -6 -7 25 -9 27 -10 10
-1 -18 -7 -23 -29 -23 -15 0 -33 -5 -39 -11 -8 -8 -17 -7 -34 5 -13 9 -31 16
-41 16 -9 0 -22 9 -28 19 -8 16 -6 22 7 31 12 7 13 10 3 7 -8 -2 -23 0 -32 5
-14 7 -18 4 -18 -12 0 -11 -4 -20 -10 -20 -5 0 -10 -5 -10 -12 0 -9 3 -9 12 0
7 7 18 12 25 12 18 0 16 -35 -3 -51 -14 -11 -18 -11 -29 4 -7 9 -16 17 -21 17
-11 1 -54 36 -54 44 0 3 11 6 25 6 26 0 56 42 54 77 0 10 -8 -1 -17 -24 -18
-47 -36 -58 -27 -18 3 14 7 37 10 51 4 17 11 24 20 21 7 -3 16 1 19 9 7 18 50
18 66 -1 7 -8 18 -15 25 -15 8 0 16 -6 18 -12 3 -7 6 -1 6 13 1 21 8 39 16 39
1 0 14 -11 30 -24z m72 -92 c-3 -3 -12 -4 -19 -1 -8 3 -5 6 6 6 11 1 17 -2 13
-5z m126 -8 c12 -9 14 -16 7 -21 -12 -7 -40 11 -40 26 0 13 12 11 33 -5z m143
-54 c-10 -11 -16 -12 -16 -4 0 7 5 12 10 12 6 0 11 10 11 23 1 18 2 19 6 3 3
-10 -2 -26 -11 -34z m-582 7 c20 -16 24 -24 16 -34 -13 -15 -23 -15 -67 4 -31
13 -41 30 -26 44 13 14 51 7 77 -14z m505 7 c10 -12 8 -17 -8 -25 -26 -14 -31
-14 -31 4 0 8 -5 15 -10 15 -7 0 -7 -6 0 -20 10 -18 3 -25 -67 -70 -72 -48
-78 -50 -87 -32 -6 11 -18 17 -26 15 -8 -2 -2 3 13 12 27 15 30 15 48 -1 10
-9 19 -12 19 -6 0 6 -7 15 -16 20 -14 8 -14 10 1 22 15 12 19 12 30 -3 7 -9
16 -17 20 -17 5 0 0 9 -9 19 -17 19 -17 20 6 34 39 25 82 46 94 47 6 0 17 -6
23 -14z m-651 -38 c-6 -18 -28 -21 -28 -4 0 9 7 16 16 16 9 0 14 -5 12 -12z
m335 -18 c22 -17 26 -18 37 -5 15 18 66 20 76 3 11 -17 -27 -40 -58 -35 -16 2
-29 -2 -32 -10 -3 -7 -1 -13 4 -13 6 0 10 -8 10 -17 0 -15 2 -16 10 -3 9 13
11 13 20 0 6 -10 10 -11 10 -3 0 7 7 10 15 7 8 -4 12 -10 9 -15 -7 -13 -124
-11 -124 1 0 6 -11 8 -25 4 -22 -5 -24 -3 -18 12 3 11 11 22 15 25 5 3 -3 14
-17 23 -21 14 -24 20 -14 32 16 20 52 17 82 -6z m-273 -16 c0 -17 -22 -14 -28
4 -2 7 3 12 12 12 9 0 16 -7 16 -16z m44 10 c23 -9 21 -44 -2 -44 -25 0 -31 7
-25 31 6 21 6 21 27 13z m526 -19 c0 -14 -4 -25 -9 -25 -12 0 -23 29 -15 41
10 18 24 9 24 -16z m50 21 c0 -2 -7 -9 -15 -16 -12 -10 -15 -10 -15 4 0 9 7
16 15 16 8 0 15 -2 15 -4z m-420 -57 c-7 -11 -14 -18 -17 -15 -8 8 5 36 17 36
7 0 7 -6 0 -21z m170 -58 c0 -6 -5 -13 -10 -16 -15 -9 -43 3 -35 15 8 13 45
13 45 1z"/>
<path d="M1341 1212 c-1 -18 5 -45 13 -61 13 -25 13 -28 -5 -39 -24 -15 -63 5
-53 28 16 39 14 51 -3 21 l-20 -35 29 -24 c27 -23 30 -23 47 -8 10 9 23 16 29
16 16 0 15 10 -2 29 -8 9 -19 36 -24 61 -9 42 -10 43 -11 12z"/>
<path d="M1230 1176 c0 -9 40 -13 46 -5 3 5 -6 9 -20 9 -14 0 -26 -2 -26 -4z"/>
<path d="M1066 1104 c-4 -12 -2 -15 9 -10 8 3 15 1 15 -5 0 -6 4 -8 9 -5 5 4
12 0 14 -6 4 -8 6 -9 6 -2 1 7 -10 19 -23 27 -22 15 -25 15 -30 1z"/>
<path d="M1530 1079 c0 -6 -4 -7 -10 -4 -5 3 -10 2 -10 -4 0 -5 5 -13 10 -16
6 -3 10 -2 10 4 0 5 8 11 18 13 16 3 16 4 0 10 -10 4 -18 3 -18 -3z"/>
<path d="M1425 1000 c3 -5 11 -10 16 -10 6 0 7 5 4 10 -3 6 -11 10 -16 10 -6
0 -7 -4 -4 -10z"/>
<path d="M1266 1005 c-11 -8 -17 -17 -14 -20 3 -3 11 1 18 10 18 22 29 19 24
-7 -4 -21 -4 -22 5 -3 5 11 10 23 10 28 1 12 -23 7 -43 -8z"/>
<path d="M1027 1205 c-2 -14 -1 -28 3 -30 4 -3 10 7 13 20 2 14 1 28 -3 30 -4
3 -10 -7 -13 -20z"/>
<path d="M1165 1030 c-3 -5 -2 -10 4 -10 5 0 13 5 16 10 3 6 2 10 -4 10 -5 0
-13 -4 -16 -10z"/>
<path d="M1261 536 c-19 -23 -10 -61 14 -61 16 0 20 7 20 34 0 38 -15 50 -34
27z"/>
<path d="M760 465 c0 -8 5 -15 10 -15 6 0 10 7 10 15 0 8 -4 15 -10 15 -5 0
-10 -7 -10 -15z"/>
<path d="M1830 440 c0 -5 5 -10 10 -10 6 0 10 5 10 10 0 6 -4 10 -10 10 -5 0
-10 -4 -10 -10z"/>
<path d="M1590 405 c0 -8 4 -15 10 -15 5 0 7 7 4 15 -4 8 -8 15 -10 15 -2 0
-4 -7 -4 -15z"/>
</g>
</svg>
